<mxfile host="app.diagrams.net" modified="2023-04-23T14:04:42.570Z" agent="Mozilla/5.0 (Windows NT 10.0; Win64; x64) AppleWebKit/537.36 (KHTML, like Gecko) Chrome/112.0.0.0 Safari/537.36" etag="dcmJ0FdJiDz5pQSpPGaG" version="21.2.1" type="device">
  <diagram name="Страница 1" id="8_2px0Vj9bt0D1b7eZAj">
    <mxGraphModel dx="2495" dy="1462" grid="1" gridSize="20" guides="1" tooltips="1" connect="1" arrows="1" fold="1" page="1" pageScale="1" pageWidth="1654" pageHeight="2336" math="0" shadow="0">
      <root>
        <mxCell id="0" />
        <mxCell id="1" parent="0" />
        <mxCell id="L-BGeSX9i74AMv3q2SBN-4" style="rounded=0;orthogonalLoop=1;jettySize=auto;html=1;exitX=0.5;exitY=1;exitDx=0;exitDy=0;endArrow=none;endFill=0;" edge="1" parent="1" source="dZnzciocZTakdR4R_lTB-1">
          <mxGeometry relative="1" as="geometry">
            <mxPoint x="680.0898876404494" y="720" as="targetPoint" />
          </mxGeometry>
        </mxCell>
        <mxCell id="dZnzciocZTakdR4R_lTB-1" value="Программная подсистема имитационного моделирования процессов" style="whiteSpace=wrap;html=1;direction=east;fontFamily=Courier New;fontSize=25;" parent="1" vertex="1">
          <mxGeometry x="480" y="520" width="400" height="120" as="geometry" />
        </mxCell>
        <mxCell id="np4YpJvV-27lMfiPqFyP-23" style="rounded=0;orthogonalLoop=1;jettySize=auto;html=1;exitX=0.5;exitY=1;exitDx=0;exitDy=0;endArrow=none;endFill=0;fontFamily=Courier New;fontSize=25;" parent="1" source="dZnzciocZTakdR4R_lTB-2" edge="1">
          <mxGeometry relative="1" as="geometry">
            <Array as="points">
              <mxPoint x="440" y="960" />
            </Array>
            <mxPoint x="440" y="960" as="targetPoint" />
          </mxGeometry>
        </mxCell>
        <mxCell id="L-BGeSX9i74AMv3q2SBN-3" style="edgeStyle=orthogonalEdgeStyle;rounded=0;orthogonalLoop=1;jettySize=auto;html=1;exitX=0.5;exitY=0;exitDx=0;exitDy=0;endArrow=none;endFill=0;" edge="1" parent="1" source="dZnzciocZTakdR4R_lTB-2">
          <mxGeometry relative="1" as="geometry">
            <mxPoint x="680" y="720" as="targetPoint" />
            <Array as="points">
              <mxPoint x="440" y="720" />
            </Array>
          </mxGeometry>
        </mxCell>
        <mxCell id="dZnzciocZTakdR4R_lTB-2" value="Интеграция с адаптивной средой разработки" style="whiteSpace=wrap;html=1;direction=east;fontFamily=Courier New;fontSize=25;" parent="1" vertex="1">
          <mxGeometry x="280" y="800" width="320" height="100" as="geometry" />
        </mxCell>
        <mxCell id="np4YpJvV-27lMfiPqFyP-26" style="rounded=0;orthogonalLoop=1;jettySize=auto;html=1;exitX=0.5;exitY=0;exitDx=0;exitDy=0;endArrow=none;endFill=0;fontFamily=Courier New;fontSize=25;" parent="1" source="dZnzciocZTakdR4R_lTB-3" edge="1">
          <mxGeometry relative="1" as="geometry">
            <mxPoint x="680" y="720" as="targetPoint" />
            <Array as="points">
              <mxPoint x="900" y="720" />
            </Array>
          </mxGeometry>
        </mxCell>
        <mxCell id="L-BGeSX9i74AMv3q2SBN-6" style="edgeStyle=orthogonalEdgeStyle;rounded=0;orthogonalLoop=1;jettySize=auto;html=1;exitX=0.5;exitY=1;exitDx=0;exitDy=0;endArrow=none;endFill=0;" edge="1" parent="1" source="dZnzciocZTakdR4R_lTB-3">
          <mxGeometry relative="1" as="geometry">
            <mxPoint x="899.7948717948718" y="960" as="targetPoint" />
          </mxGeometry>
        </mxCell>
        <mxCell id="dZnzciocZTakdR4R_lTB-3" value="Имитационное моделирование" style="whiteSpace=wrap;html=1;direction=east;fontFamily=Courier New;fontSize=25;" parent="1" vertex="1">
          <mxGeometry x="759.37" y="800" width="280.63" height="80" as="geometry" />
        </mxCell>
        <mxCell id="L-BGeSX9i74AMv3q2SBN-7" style="edgeStyle=orthogonalEdgeStyle;rounded=0;orthogonalLoop=1;jettySize=auto;html=1;exitX=0.5;exitY=0;exitDx=0;exitDy=0;endArrow=none;endFill=0;" edge="1" parent="1" source="dZnzciocZTakdR4R_lTB-4">
          <mxGeometry relative="1" as="geometry">
            <mxPoint x="900" y="960" as="targetPoint" />
            <Array as="points">
              <mxPoint x="780" y="960" />
            </Array>
          </mxGeometry>
        </mxCell>
        <mxCell id="dZnzciocZTakdR4R_lTB-4" value="Ввод-вывод" style="whiteSpace=wrap;html=1;direction=east;fontFamily=Courier New;fontSize=25;" parent="1" vertex="1">
          <mxGeometry x="680" y="1040" width="200" height="80" as="geometry" />
        </mxCell>
        <mxCell id="L-BGeSX9i74AMv3q2SBN-5" style="edgeStyle=orthogonalEdgeStyle;rounded=0;orthogonalLoop=1;jettySize=auto;html=1;exitX=0.5;exitY=0;exitDx=0;exitDy=0;endArrow=none;endFill=0;" edge="1" parent="1" source="dZnzciocZTakdR4R_lTB-5">
          <mxGeometry relative="1" as="geometry">
            <mxPoint x="440" y="960" as="targetPoint" />
            <Array as="points">
              <mxPoint x="220" y="960" />
            </Array>
          </mxGeometry>
        </mxCell>
        <mxCell id="dZnzciocZTakdR4R_lTB-5" value="Ввод-вывод" style="whiteSpace=wrap;html=1;direction=east;fontFamily=Courier New;fontSize=25;" parent="1" vertex="1">
          <mxGeometry x="120" y="1040" width="200" height="60" as="geometry" />
        </mxCell>
        <mxCell id="np4YpJvV-27lMfiPqFyP-24" style="edgeStyle=orthogonalEdgeStyle;rounded=0;orthogonalLoop=1;jettySize=auto;html=1;exitX=0.5;exitY=0;exitDx=0;exitDy=0;endArrow=none;endFill=0;fontFamily=Courier New;fontSize=25;" parent="1" source="dZnzciocZTakdR4R_lTB-6" edge="1">
          <mxGeometry relative="1" as="geometry">
            <mxPoint x="440" y="960" as="targetPoint" />
            <Array as="points">
              <mxPoint x="500" y="960" />
            </Array>
          </mxGeometry>
        </mxCell>
        <mxCell id="dZnzciocZTakdR4R_lTB-6" value="Обработка сообщений" style="whiteSpace=wrap;html=1;direction=east;fontFamily=Courier New;fontSize=25;" parent="1" vertex="1">
          <mxGeometry x="400" y="1040" width="200" height="80" as="geometry" />
        </mxCell>
        <mxCell id="L-BGeSX9i74AMv3q2SBN-8" style="edgeStyle=orthogonalEdgeStyle;rounded=0;orthogonalLoop=1;jettySize=auto;html=1;exitX=0.5;exitY=0;exitDx=0;exitDy=0;endArrow=none;endFill=0;" edge="1" parent="1" source="dZnzciocZTakdR4R_lTB-11">
          <mxGeometry relative="1" as="geometry">
            <mxPoint x="900" y="960" as="targetPoint" />
            <Array as="points">
              <mxPoint x="1060" y="960" />
            </Array>
          </mxGeometry>
        </mxCell>
        <mxCell id="dZnzciocZTakdR4R_lTB-11" value="Обработка сообщений" style="whiteSpace=wrap;html=1;direction=east;fontFamily=Courier New;fontSize=25;" parent="1" vertex="1">
          <mxGeometry x="960" y="1040" width="200" height="80" as="geometry" />
        </mxCell>
        <mxCell id="L-BGeSX9i74AMv3q2SBN-9" style="edgeStyle=orthogonalEdgeStyle;rounded=0;orthogonalLoop=1;jettySize=auto;html=1;exitX=0.5;exitY=0;exitDx=0;exitDy=0;endArrow=none;endFill=0;" edge="1" parent="1" source="dZnzciocZTakdR4R_lTB-12">
          <mxGeometry relative="1" as="geometry">
            <mxPoint x="1060" y="960" as="targetPoint" />
            <Array as="points">
              <mxPoint x="1360" y="960" />
            </Array>
          </mxGeometry>
        </mxCell>
        <mxCell id="dZnzciocZTakdR4R_lTB-12" value="Интерпретация" style="whiteSpace=wrap;html=1;fontFamily=Courier New;fontSize=25;" parent="1" vertex="1">
          <mxGeometry x="1240" y="1040" width="240" height="80" as="geometry" />
        </mxCell>
        <mxCell id="L-BGeSX9i74AMv3q2SBN-12" style="edgeStyle=orthogonalEdgeStyle;rounded=0;orthogonalLoop=1;jettySize=auto;html=1;exitX=0.5;exitY=0;exitDx=0;exitDy=0;endArrow=none;endFill=0;" edge="1" parent="1" source="dZnzciocZTakdR4R_lTB-13">
          <mxGeometry relative="1" as="geometry">
            <mxPoint x="1040" y="1200" as="targetPoint" />
            <Array as="points">
              <mxPoint x="720" y="1200" />
            </Array>
          </mxGeometry>
        </mxCell>
        <mxCell id="dZnzciocZTakdR4R_lTB-13" value="Интерпретатор" style="whiteSpace=wrap;html=1;fontFamily=Courier New;fontSize=25;" parent="1" vertex="1">
          <mxGeometry x="600" y="1280" width="240" height="80" as="geometry" />
        </mxCell>
        <mxCell id="L-BGeSX9i74AMv3q2SBN-11" style="edgeStyle=orthogonalEdgeStyle;rounded=0;orthogonalLoop=1;jettySize=auto;html=1;exitX=0.5;exitY=0;exitDx=0;exitDy=0;endArrow=none;endFill=0;" edge="1" parent="1" source="dZnzciocZTakdR4R_lTB-14">
          <mxGeometry relative="1" as="geometry">
            <mxPoint x="1360" y="1200" as="targetPoint" />
            <Array as="points">
              <mxPoint x="1040" y="1200" />
            </Array>
          </mxGeometry>
        </mxCell>
        <mxCell id="dZnzciocZTakdR4R_lTB-14" value="Менеджер модулей" style="whiteSpace=wrap;html=1;fontFamily=Courier New;fontSize=25;" parent="1" vertex="1">
          <mxGeometry x="920" y="1280" width="240" height="80" as="geometry" />
        </mxCell>
        <mxCell id="L-BGeSX9i74AMv3q2SBN-10" style="edgeStyle=orthogonalEdgeStyle;rounded=0;orthogonalLoop=1;jettySize=auto;html=1;exitX=0.5;exitY=0;exitDx=0;exitDy=0;entryX=0.5;entryY=1;entryDx=0;entryDy=0;endArrow=none;endFill=0;" edge="1" parent="1" source="dZnzciocZTakdR4R_lTB-15" target="dZnzciocZTakdR4R_lTB-12">
          <mxGeometry relative="1" as="geometry" />
        </mxCell>
        <mxCell id="dZnzciocZTakdR4R_lTB-15" value="Модуль сцены" style="whiteSpace=wrap;html=1;fontFamily=Courier New;fontSize=25;" parent="1" vertex="1">
          <mxGeometry x="1240" y="1280" width="240" height="80" as="geometry" />
        </mxCell>
      </root>
    </mxGraphModel>
  </diagram>
</mxfile>
